<svg xmlns="http://www.w3.org/2000/svg" xmlns:xlink="http://www.w3.org/1999/xlink" version="1.1" x="0px" y="0px" viewBox="0 0 64 80" style="enable-background:new 0 0 64 64;" xml:space="preserve"><g><g><circle cx="18.2" cy="45" r="6.9"/><path d="M56.5,42.5C56.5,42.5,56.5,42.5,56.5,42.5C56.5,42.5,56.5,42.5,56.5,42.5c-0.1-0.6-0.3-1-0.4-1.5    c-1.3-4.5-5.3-18.1-6.7-23.7c-1.3-5-2.7-10.6-8.7-10.6c-3.4,0-7.5,1.6-7.5,9.1v10.3H30V15.8c0-7.5-4.1-9.1-7.5-9.1    c-6.1,0-7.5,5.6-8.7,10.6C12.4,22.9,8.4,36.5,7,41c-0.2,0.5-0.3,0.9-0.4,1.4c0,0,0,0.1,0,0.1c0,0,0,0,0,0    c-0.2,0.8-0.3,1.6-0.3,2.5c0,6.5,5.3,11.8,11.8,11.8S30,51.5,30,45V39h3.1V45c0,6.5,5.3,11.8,11.8,11.8c6.5,0,11.8-5.3,11.8-11.8    C56.8,44.1,56.7,43.3,56.5,42.5z M40.6,8.8c3.3,0,4.8,2.2,5.9,5.9c-1.6-0.9-3.5-1.5-5.5-1.5c-2.1,0-4.2,0.8-5.9,2.1    C35.3,9.5,38.3,8.8,40.6,8.8z M22.5,8.8c2.3,0,5.3,0.7,5.5,6.5c-1.7-1.4-3.8-2.1-5.9-2.1c-2,0-3.9,0.5-5.5,1.5    C17.7,11,19.2,8.8,22.5,8.8z M18.2,54.8c-5.4,0-9.8-4.4-9.8-9.8c0-0.7,0.1-1.4,0.2-2c0-0.1,0.2-0.6,0.4-1.4c1.4-3.8,5-6.4,9.2-6.4    c5.4,0,9.8,4.4,9.8,9.8S23.6,54.8,18.2,54.8z M18.2,33.2c-2.9,0-5.5,1-7.5,2.7c1.7-5.8,4-13.7,5-17.8c1.4-1.8,3.8-2.9,6.5-2.9    c2.2,0,4.4,1.1,5.9,3v20.3C25.9,35.3,22.3,33.2,18.2,33.2z M30,37v-8.8h3.1V37H30z M35.1,18.1c1.6-1.9,3.7-3,5.9-3    c2.6,0,5,1.1,6.4,2.9c1,4,3.3,12,5,17.8c-2-1.7-4.7-2.7-7.5-2.7c-4.1,0-7.7,2.1-9.8,5.3V18.1z M44.9,54.8c-5.4,0-9.8-4.4-9.8-9.8    s4.4-9.8,9.8-9.8c4.2,0,7.8,2.7,9.2,6.4c0.2,0.7,0.4,1.2,0.4,1.4c0.1,0.6,0.2,1.3,0.2,2C54.8,50.4,50.4,54.8,44.9,54.8z"/><circle cx="44.9" cy="45" r="7.1"/></g></g><text x="0" y="79" fill="#000000" font-size="5px" font-weight="bold" font-family="'Helvetica Neue', Helvetica, Arial-Unicode, Arial, Sans-serif">Created by Guilherme Simoes</text><text x="0" y="84" fill="#000000" font-size="5px" font-weight="bold" font-family="'Helvetica Neue', Helvetica, Arial-Unicode, Arial, Sans-serif">from the Noun Project</text></svg>